<svg width="163" height="140" viewBox="0 0 163 140" fill="none" xmlns="http://www.w3.org/2000/svg">
<g clip-path="url(#clip0_15_185)">
<path d="M39.3945 39.8511C39.0693 40.2492 38.6065 40.6475 38.0061 41.0457C37.4057 41.4439 36.6927 41.8048 35.8671 42.1284C35.0666 42.4519 34.1535 42.7132 33.1278 42.9124C32.1271 43.1364 31.0514 43.2484 29.9006 43.2484C27.7992 43.2484 25.8979 42.9372 24.1968 42.3151C22.5206 41.6679 21.0947 40.7719 19.9189 39.6271C18.7432 38.4572 17.83 37.0386 17.1796 35.3711C16.5541 33.7035 16.2415 31.8368 16.2415 29.7711C16.2415 27.8297 16.5541 26.0502 17.1796 24.4324C17.805 22.7897 18.7056 21.3711 19.8814 20.1764C21.0822 18.9817 22.5206 18.0484 24.1968 17.3764C25.8979 16.7044 27.8242 16.3684 29.9757 16.3684C31.0514 16.3684 32.052 16.4555 32.9777 16.6297C33.9033 16.7791 34.7289 16.9906 35.4543 17.2644C36.2048 17.5132 36.8553 17.7995 37.4057 18.1231C37.956 18.4217 38.3813 18.7204 38.6815 19.0191V24.2831C38.3063 23.6608 37.8309 23.0635 37.2556 22.4911C36.6802 21.8937 36.0172 21.3711 35.2667 20.9231C34.5162 20.4502 33.6907 20.0768 32.7901 19.8031C31.8895 19.5044 30.9513 19.3551 29.9757 19.3551C28.3996 19.3551 26.9737 19.6039 25.6978 20.1017C24.447 20.5995 23.3837 21.3088 22.5082 22.2297C21.6326 23.1506 20.9571 24.2582 20.4818 25.5524C20.0065 26.8217 19.7688 28.2404 19.7688 29.8084C19.7688 31.2768 19.9815 32.6457 20.4068 33.9151C20.832 35.1595 21.4575 36.2546 22.283 37.2004C23.1336 38.1212 24.1843 38.8555 25.4351 39.4031C26.6859 39.9506 28.1244 40.2368 29.7505 40.2617C30.9513 40.2617 32.052 40.1248 33.0527 39.8511C34.0784 39.5524 34.9916 39.1666 35.7921 38.6937C36.6176 38.1959 37.3306 37.6359 37.931 37.0137C38.5314 36.3666 39.0192 35.6946 39.3945 34.9977V39.8511Z" fill="white"/>
<path d="M48.0264 39.8884H63.2617V42.8751H44.6492V16.7417H48.0264V39.8884Z" fill="white"/>
<path d="M69.4598 31.8617C69.4598 33.5044 69.6849 34.8732 70.1352 35.9684C70.6108 37.0386 71.2235 37.8972 71.974 38.5444C72.7497 39.1666 73.6374 39.6146 74.6383 39.8884C75.6391 40.1372 76.6646 40.2617 77.7153 40.2617C78.691 40.2617 79.6168 40.1497 80.4922 39.9257C81.3928 39.7017 82.1808 39.2911 82.8563 38.6937C83.5317 38.0964 84.0694 37.2875 84.4699 36.2671C84.8703 35.2466 85.0703 33.9275 85.0703 32.3097V16.7417H88.4475V32.1604C88.4475 34.1764 88.1596 35.8937 87.5844 37.3124C87.0093 38.7311 86.2212 39.8759 85.2204 40.7471C84.2195 41.6182 83.0439 42.2528 81.693 42.6511C80.3421 43.0492 78.8909 43.2484 77.3401 43.2484C73.8127 43.2484 71.0482 42.3275 69.047 40.4857C67.0705 38.6439 66.0825 35.9684 66.0825 32.4591V16.7417H69.4598V31.8617Z" fill="white"/>
<path d="M95.77 42.8751V16.7417H106.652C107.953 16.7417 109.116 16.8662 110.142 17.1151C111.168 17.3639 112.043 17.7497 112.769 18.2724C113.494 18.7702 114.045 19.4172 114.42 20.2137C114.82 21.0102 115.02 21.9684 115.02 23.0884C115.02 26.2991 113.619 28.3524 110.818 29.2484C112.568 29.4724 113.832 30.1071 114.608 31.1524C115.408 32.1728 115.808 33.5417 115.808 35.2591C115.808 36.6031 115.57 37.7604 115.095 38.7311C114.62 39.7017 113.945 40.4982 113.069 41.1204C112.193 41.7177 111.105 42.1657 109.804 42.4644C108.529 42.7382 107.09 42.8751 105.489 42.8751H95.77ZM105.977 39.8884C108.053 39.8884 109.641 39.5275 110.743 38.8057C111.843 38.0839 112.394 36.9142 112.394 35.2964C112.394 34.4502 112.231 33.7532 111.906 33.2057C111.606 32.6582 111.168 32.2226 110.592 31.8991C110.042 31.5506 109.379 31.3142 108.604 31.1897C107.853 31.0404 107.015 30.9657 106.089 30.9657H99.1473V39.8884H105.977ZM105.789 28.2777C106.59 28.2777 107.34 28.1782 108.041 27.9791C108.766 27.7799 109.392 27.4937 109.917 27.1204C110.442 26.7222 110.855 26.2492 111.155 25.7017C111.48 25.1292 111.643 24.4697 111.643 23.7231C111.643 22.3791 111.18 21.3835 110.255 20.7364C109.354 20.0644 107.903 19.7284 105.902 19.7284H99.1473V28.2777H105.789Z" fill="white"/>
<path d="M35.3042 72.8817H21.4949V83.7083H18.1177V57.5751H35.9046V60.5617H21.4949V69.895H35.3042V72.8817Z" fill="white"/>
<path d="M44.765 83.7083H41.3877V57.5751H44.765V83.7083Z" fill="white"/>
<path d="M62.7785 74.6737C62.4285 74.6987 62.0779 74.7232 61.7278 74.7483C61.3778 74.7483 61.0272 74.7483 60.6771 74.7483H55.6488V83.7083H52.2715V57.5751H60.6771C64.3798 57.5751 67.1567 58.2595 69.0077 59.6283C70.8588 60.9723 71.7846 63.1126 71.7846 66.0497C71.7846 68.0657 71.322 69.7334 70.3961 71.0523C69.4703 72.3467 68.1071 73.3046 66.3059 73.927L74.0736 83.7083H69.8708L62.7785 74.6737ZM55.6488 60.5617V71.7617H60.5645C63.0664 71.7617 64.9673 71.3259 66.2684 70.455C67.5941 69.559 68.2572 68.0161 68.2572 65.8257C68.2572 63.8592 67.6316 62.4907 66.3809 61.719C65.1303 60.9472 63.1538 60.5617 60.452 60.5617H55.6488Z" fill="white"/>
<path d="M95.6107 65.079C95.2355 64.4566 94.76 63.8593 94.1848 63.287C93.6096 62.6897 92.9464 62.167 92.1959 61.719C91.4454 61.2459 90.6322 60.8726 89.7568 60.599C88.8814 60.3003 87.9679 60.151 87.0175 60.151C85.0914 60.2006 83.6525 60.5617 82.7021 61.2337C81.7516 61.9057 81.2761 62.7894 81.2761 63.8843C81.2761 64.6806 81.5013 65.3526 81.9516 65.9003C82.4019 66.423 82.9899 66.871 83.7152 67.2443C84.4405 67.5926 85.2661 67.9041 86.1919 68.1777C87.1177 68.4268 88.0682 68.7003 89.0438 68.999C90.0195 69.2726 90.9699 69.5963 91.8957 69.9697C92.8215 70.343 93.6471 70.8161 94.3724 71.3883C95.0977 71.9606 95.6858 72.6699 96.1361 73.5163C96.5864 74.3377 96.8115 75.3579 96.8115 76.5777C96.8115 77.6977 96.5987 78.7179 96.1736 79.639C95.7485 80.5601 95.1352 81.3563 94.3349 82.0283C93.5345 82.6753 92.546 83.1857 91.3704 83.559C90.2194 83.9073 88.8937 84.0817 87.3927 84.0817C86.2171 84.0817 85.1037 83.9697 84.053 83.7457C83.0275 83.5468 82.0893 83.2854 81.2386 82.9617C80.3878 82.6379 79.6502 82.2774 79.0246 81.879C78.4242 81.4806 77.9487 81.0828 77.5986 80.6843V75.831C77.9739 76.5281 78.474 77.2001 79.0996 77.847C79.7253 78.4694 80.4629 79.0294 81.3136 79.527C82.1644 80.0001 83.1148 80.3857 84.1655 80.6843C85.2163 80.9579 86.3543 81.095 87.5803 81.095C89.3317 81.095 90.7072 80.7339 91.7081 80.0123C92.7336 79.2908 93.2466 78.2203 93.2466 76.8017C93.2466 75.7563 92.8591 74.9473 92.0834 74.375C91.3329 73.7777 90.3824 73.2801 89.2314 72.8817C88.0805 72.4588 86.8421 72.0726 85.5165 71.7243C84.1908 71.351 82.9524 70.8779 81.8015 70.3057C80.6505 69.7083 79.6877 68.9366 78.912 67.991C78.1615 67.0203 77.7863 65.7388 77.7863 64.1457C77.7863 63.0257 78.0114 62.0299 78.4617 61.159C78.9372 60.2881 79.5875 59.5659 80.413 58.9937C81.2386 58.3963 82.2142 57.9484 83.34 57.6497C84.4657 57.3262 85.6918 57.1644 87.0175 57.1644C88.0682 57.1644 89.0438 57.2515 89.9444 57.4257C90.8702 57.5999 91.6958 57.8239 92.4211 58.0977C93.1464 58.3468 93.7843 58.6203 94.3349 58.919C94.8854 59.2177 95.3105 59.5163 95.6107 59.815V65.079Z" fill="white"/>
<path d="M120.691 60.5617H111.272V83.7083H107.895V60.5617H98.4385V57.5751H120.691V60.5617Z" fill="white"/>
<path d="M35.3042 114.007H21.4949V124.833H18.1177V98.7H35.9046V101.687H21.4949V111.02H35.3042V114.007Z" fill="#A42261"/>
<path d="M43.4515 113.82C43.4515 115.463 43.6766 116.832 44.1269 117.927C44.6023 118.997 45.2152 119.856 45.9657 120.503C46.7412 121.125 47.6293 121.573 48.63 121.847C49.6306 122.096 50.6563 122.22 51.707 122.22C52.6827 122.22 53.6083 122.108 54.4839 121.884C55.3845 121.66 56.1725 121.249 56.848 120.652C57.5234 120.055 58.0613 119.246 58.4616 118.225C58.8617 117.205 59.0617 115.886 59.0617 114.268V98.7H62.4389V114.119C62.4389 116.135 62.1516 117.852 61.5758 119.271C61.0007 120.689 60.2126 121.834 59.2118 122.705C58.2114 123.576 57.0356 124.211 55.6847 124.609C54.3338 125.008 52.8828 125.207 51.3318 125.207C47.8044 125.207 45.04 124.286 43.0387 122.444C41.0624 120.602 40.0742 117.927 40.0742 114.417V98.7H43.4515V113.82Z" fill="#A42261"/>
<path d="M87.4736 101.687H78.0548V124.833H74.6775V101.687H65.2212V98.7H87.4736V101.687Z" fill="#A42261"/>
<path d="M93.6769 113.82C93.6769 115.463 93.9015 116.832 94.3518 117.927C94.8273 118.997 95.44 119.856 96.1905 120.503C96.9662 121.125 97.8545 121.573 98.8554 121.847C99.8557 122.096 100.882 122.22 101.932 122.22C102.908 122.22 103.833 122.108 104.709 121.884C105.609 121.66 106.398 121.249 107.073 120.652C107.749 120.055 108.287 119.246 108.686 118.225C109.087 117.205 109.287 115.886 109.287 114.268V98.7H112.665V114.119C112.665 116.135 112.377 117.852 111.802 119.271C111.226 120.689 110.438 121.834 109.437 122.705C108.437 123.576 107.26 124.211 105.91 124.609C104.559 125.008 103.108 125.207 101.557 125.207C98.0298 125.207 95.2653 124.286 93.2636 122.444C91.2876 120.602 90.2991 117.927 90.2991 114.417V98.7H93.6769V113.82Z" fill="#A42261"/>
<path d="M129.368 115.799C129.018 115.824 128.667 115.848 128.317 115.873C127.967 115.873 127.617 115.873 127.267 115.873H122.238V124.833H118.861V98.7H127.267C130.969 98.7 133.746 99.3842 135.597 100.753C137.448 102.097 138.374 104.238 138.374 107.175C138.374 109.191 137.912 110.858 136.986 112.177C136.06 113.472 134.697 114.43 132.896 115.052L140.663 124.833H136.46L129.368 115.799ZM122.238 101.687V112.887H127.154C129.656 112.887 131.557 112.451 132.858 111.58C134.184 110.684 134.847 109.141 134.847 106.951C134.847 104.984 134.221 103.616 132.971 102.844C131.72 102.072 129.743 101.687 127.042 101.687H122.238Z" fill="#A42261"/>
<path d="M160.849 112.887H147.791V121.847H162.651V124.833H144.413V98.7H162.238V101.687H147.791V109.9H160.849V112.887Z" fill="#A42261"/>
<path fill-rule="evenodd" clip-rule="evenodd" d="M0 0H140.133V85.4583H137.788V2.33333H2.34532V137.375H138.96V139.708H0V0Z" fill="white"/>
</g>
<defs>
<clipPath id="clip0_15_185">
<rect width="163" height="140" fill="white"/>
</clipPath>
</defs>
</svg>
